<svg xmlns="http://www.w3.org/2000/svg" width="18" height="18" viewBox="0 0 18 18">
    <defs>
        <clipPath id="clip-path">
            <path id="Rectangle_2310" d="M0 0H18V18H0z" class="cls-1" transform="translate(5)"/>
        </clipPath>
        <style>
            .cls-1{fill:#090941}
        </style>
    </defs>
    <g id="Mask_Group_862" clipPath="url(#clip-path)" transform="translate(-5)">
        <path id="fi-rr-play" d="M15.372 5.977L8.217.726A3.75 3.75 0 0 0 2.25 3.75v10.5a3.75 3.75 0 0 0 5.968 3.024l7.156-5.251a3.75 3.75 0 0 0 0-6.049zm-.888 4.838l-7.156 5.251a2.25 2.25 0 0 1-3.578-1.814V3.75a2.211 2.211 0 0 1 1.231-2 2.264 2.264 0 0 1 1.024-.25 2.228 2.228 0 0 1 1.323.442l7.156 5.251a2.25 2.25 0 0 1 0 3.627z" class="cls-1" transform="translate(4.421 -.002)"/>
    </g>
</svg>
