<svg xmlns="http://www.w3.org/2000/svg" width="16" height="16" viewBox="0 0 16 16">
    <defs>
        <clipPath id="clip-path">
            <path id="Rectangle_2302" d="M0 0H16V16H0z" class="cls-1" transform="translate(865 13)"/>
        </clipPath>
        <style>
            .cls-1{fill:#090941}
        </style>
    </defs>
    <g id="faq" clipPath="url(#clip-path)" transform="translate(-865 -13)">
        <g id="fi-rr-comment-alt" transform="translate(865 13)">
            <path id="Path_3784" d="M13.333 0H2.667A2.667 2.667 0 0 0 0 2.667v8a2.667 2.667 0 0 0 2.667 2.667H4.6l2.967 2.509a.667.667 0 0 0 .861 0l2.972-2.51h1.933A2.667 2.667 0 0 0 16 10.667v-8A2.667 2.667 0 0 0 13.333 0zm1.333 10.667A1.333 1.333 0 0 1 13.333 12H11.4a1.333 1.333 0 0 0-.861.315L8 14.46l-2.538-2.145A1.333 1.333 0 0 0 4.6 12H2.667a1.333 1.333 0 0 1-1.333-1.333v-8a1.333 1.333 0 0 1 1.333-1.334h10.666a1.333 1.333 0 0 1 1.333 1.333z" class="cls-1"/>
            <path id="Path_3785" d="M4.667 4.667H8a.667.667 0 1 0 0-1.334H4.667a.667.667 0 1 0 0 1.333z" class="cls-1"/>
            <path id="Path_3786" d="M11.333 6H4.667a.667.667 0 1 0 0 1.333h6.667a.667.667 0 0 0 0-1.333z" class="cls-1"/>
            <path id="Path_3787" d="M11.333 8.667H4.667a.667.667 0 1 0 0 1.333h6.667a.667.667 0 0 0 0-1.333z" class="cls-1"/>
        </g>
    </g>
</svg>
