<svg xmlns="http://www.w3.org/2000/svg" width="16" height="16" viewBox="0 0 16 16">
    <defs>
        <clipPath id="clip-path">
            <path id="Rectangle_2303" d="M0 0H16V16H0z" class="cls-1" transform="translate(0 3)"/>
        </clipPath>
        <style>
            .cls-1{fill:#090941}
        </style>
    </defs>
    <g id="map" clipPath="url(#clip-path)" transform="translate(0 -3)">
        <g id="fi-rr-marker" transform="translate(.001 3.001)">
            <path id="Path_3788" d="M8 4a2.666 2.666 0 1 0 2.666 2.666A2.666 2.666 0 0 0 8 4zm0 4a1.333 1.333 0 1 1 1.333-1.334A1.333 1.333 0 0 1 8 8z" class="cls-1"/>
            <path id="Path_3789" d="M8 16a3.514 3.514 0 0 1-2.874-1.467C2.585 11.028 1.3 8.393 1.3 6.7a6.7 6.7 0 1 1 13.4 0c0 1.692-1.289 4.326-3.829 7.831A3.514 3.514 0 0 1 8 16zM8 1.454A5.255 5.255 0 0 0 2.75 6.7c0 1.34 1.262 3.818 3.552 6.977a2.1 2.1 0 0 0 3.393 0c2.29-3.159 3.552-5.637 3.552-6.977A5.255 5.255 0 0 0 8 1.454z" class="cls-1"/>
        </g>
    </g>
</svg>
