
<svg xmlns="http://www.w3.org/2000/svg" width="262" height="46.522" viewBox="0 0 262 46.522">
    <defs>
        <style>
            .cls-2{fill:#fff}
        </style>
    </defs>
    <g id="Group_9081" transform="translate(-224.806 -262.782)">
        <path id="Rectangle_2510" fill="none" d="M0 0H46.522V262H0z" transform="rotate(90 112.012 374.794)"/>
        <g id="Group_9065" transform="translate(234.264 271.349)">
            <path id="Path_4008" d="M238.979 282.953c0-3.724 2.85-6.364 6.732-6.364a6.473 6.473 0 0 1 5.263 2.308l-2.2 1.993a3.617 3.617 0 0 0-2.885-1.434 3.5 3.5 0 0 0 0 6.994 3.618 3.618 0 0 0 2.885-1.433l2.2 1.993a6.473 6.473 0 0 1-5.263 2.308c-3.882-.001-6.732-2.641-6.732-6.365z" class="cls-2" transform="translate(-238.979 -275.942)"/>
            <path id="Path_4009" d="M262 277.578a4.576 4.576 0 0 1-.56 2.011l-1.118 2.553h-2.081l.822-2.85a1.8 1.8 0 0 1-1.031-1.713 1.985 1.985 0 0 1 3.969 0z" class="cls-2" transform="translate(-245.316 -275.619)"/>
            <path id="Path_4010" d="M276.238 286.519v2.675h-9.826v-12.239h9.6v2.675h-6.172v2.063h5.437v2.588h-5.437v2.238z" class="cls-2" transform="translate(-248.105 -276.063)"/>
            <path id="Path_4011" d="M282.6 287.971l1.136-2.553a7.723 7.723 0 0 0 4.039 1.207c1.433 0 1.993-.4 1.993-1 0-1.941-6.958-.525-6.958-5.07 0-2.186 1.783-3.969 5.42-3.969a9.167 9.167 0 0 1 4.441 1.066l-1.067 2.57a7.23 7.23 0 0 0-3.392-.944c-1.451 0-1.975.489-1.975 1.1 0 1.871 6.941.472 6.941 4.983 0 2.133-1.783 3.951-5.42 3.951a9.633 9.633 0 0 1-5.158-1.341z" class="cls-2" transform="translate(-253.491 -275.942)"/>
            <path id="Path_4012" d="M303.262 279.7H299.5v-2.745h10.963v2.745h-3.741v9.494h-3.462z" class="cls-2" transform="translate(-259.112 -276.063)"/>
            <path id="Path_4013" d="M336.389 276.955l-5.245 12.239h-3.409l-5.227-12.239h3.741l3.322 7.973 3.392-7.973z" class="cls-2" transform="translate(-266.765 -276.063)"/>
            <path id="Path_4014" d="M342.55 282.953c0-3.671 2.885-6.364 6.8-6.364s6.8 2.693 6.8 6.364-2.885 6.365-6.8 6.365-6.8-2.693-6.8-6.365zm10.106 0a3.31 3.31 0 1 0-3.3 3.5 3.278 3.278 0 0 0 3.3-3.5z" class="cls-2" transform="translate(-273.432 -275.942)"/>
            <path id="Path_4015" d="M365.9 283.739v-6.784h3.462v6.679c0 2.1.874 2.937 2.326 2.937 1.433 0 2.308-.839 2.308-2.937v-6.679h3.404v6.784c0 3.654-2.134 5.7-5.753 5.7s-5.747-2.046-5.747-5.7z" class="cls-2" transform="translate(-281.198 -276.063)"/>
            <path id="Path_4016" d="M385.232 287.971l1.136-2.553a7.723 7.723 0 0 0 4.039 1.207c1.433 0 1.993-.4 1.993-1 0-1.941-6.958-.525-6.958-5.07 0-2.186 1.783-3.969 5.42-3.969a9.163 9.163 0 0 1 4.44 1.066l-1.066 2.57a7.23 7.23 0 0 0-3.392-.944c-1.451 0-1.975.489-1.975 1.1 0 1.871 6.941.472 6.941 4.983 0 2.133-1.783 3.951-5.42 3.951a9.633 9.633 0 0 1-5.158-1.341z" class="cls-2" transform="translate(-287.63 -275.942)"/>
            <path id="Path_4017" d="M279.224 299.981h3.462v9.494h5.84v2.745h-9.3z" class="cls-2" transform="translate(-252.367 -283.723)"/>
            <path id="Path_4018" d="M296.136 300.6a4.581 4.581 0 0 1-.559 2.011l-1.119 2.553h-2.081l.822-2.85a1.8 1.8 0 0 1-1.032-1.713 1.985 1.985 0 0 1 3.969 0z" class="cls-2" transform="translate(-256.672 -283.278)"/>
            <path id="Path_4019" d="M306.5 309.842h-5.175l-.962 2.378h-3.533l5.4-12.239h3.409l5.42 12.239h-3.6zm-1.014-2.553l-1.574-3.917-1.574 3.917z" class="cls-2" transform="translate(-258.223 -283.723)"/>
            <path id="Path_4020" d="M328.084 299.981l-5.245 12.239h-3.41l-5.229-12.239h3.741l3.323 7.972 3.391-7.972z" class="cls-2" transform="translate(-264.002 -283.723)"/>
            <path id="Path_4021" d="M346.691 309.545v2.675h-9.826v-12.239h9.6v2.675h-6.172v2.063h5.438v2.587h-5.438v2.238z" class="cls-2" transform="translate(-271.541 -283.723)"/>
            <path id="Path_4022" d="M365.987 299.981v12.239h-2.85l-5.4-6.521v6.521h-3.391v-12.239h2.85l5.4 6.521v-6.521z" class="cls-2" transform="translate(-277.355 -283.723)"/>
            <path id="Path_4023" d="M375.329 299.981h3.462v12.239h-3.462z" class="cls-2" transform="translate(-284.336 -283.723)"/>
            <path id="Path_4024" d="M389.429 308.967h-1.889v3.252h-3.462v-12.238h5.6c3.339 0 5.438 1.73 5.438 4.528a4.06 4.06 0 0 1-2.4 3.864l2.641 3.847h-3.707zm.035-6.259h-1.923v3.584h1.923c1.434 0 2.151-.665 2.151-1.784 0-1.136-.715-1.8-2.151-1.8z" class="cls-2" transform="translate(-287.247 -283.723)"/>
        </g>
        <g id="Group_9071" transform="translate(347.618 274.845)">
            <path id="Rectangle_2322" d="M0 0H22.736V22.774H0z" class="cls-2"/>
            <path id="Rectangle_2323" fill="#ed1a3b" d="M0 0H22.102V11.256H0z" transform="translate(.317 .317)"/>
            <path id="Rectangle_2324" fill="#231f20" d="M0 0H22.102V11.07H0z" transform="translate(.317 11.387)"/>
            <path id="Rectangle_2325" d="M0 0H14.387V1.342H0z" class="cls-2" transform="translate(4.156 10.716)"/>
        </g>
        <g id="Group_9082" transform="translate(-1563.958 180.706)">
            <path id="Path_3764" d="M384.968 16.644a6.456 6.456 0 0 0-2.3-.536c-1.071 0-1.576.221-1.576.63 0 1.166 4.727.252 4.727 2.742 0 1.04-.977 1.828-2.931 1.828a6.257 6.257 0 0 1-3.088-.788l.441-.945a5.338 5.338 0 0 0 2.679.725c1.166 0 1.765-.347 1.765-.819 0-1.292-4.727-.315-4.727-2.679 0-1.008.977-1.7 2.71-1.7a6.188 6.188 0 0 1 2.773.662z" class="cls-2" transform="translate(1558.318 82.965)"/>
            <path id="Path_3765" d="M405.466 21.2a3.163 3.163 0 1 1 3.435-3.151 3.239 3.239 0 0 1-3.435 3.151zm0-5.263a2.151 2.151 0 1 0 0 4.286 2.148 2.148 0 1 0 0-4.286z" class="cls-2" transform="translate(1543.114 83.102)"/>
            <path id="Path_3766" d="M430.866 21.2a3.166 3.166 0 1 1 0-6.3 4.354 4.354 0 0 1 2.773.882l-.6.882a3.45 3.45 0 0 0-2.143-.725 2.125 2.125 0 1 0 0 4.223 3.608 3.608 0 0 0 2.174-.725l.6.882a4.932 4.932 0 0 1-2.804.881z" class="cls-2" transform="translate(1525.719 83.106)"/>
            <path id="Path_3767" d="M451.2 21.456V15.5h1.1v5.924h-1.1z" class="cls-2" transform="translate(1509.418 82.691)"/>
            <path id="Path_3768" d="M459.8 21.456V15.5h5.389v.977h-4.317v1.45h3.34v.973h-3.34v1.544h4.506v.977H459.8z" class="cls-2" transform="translate(1503.529 82.691)"/>
            <path id="Path_3769" d="M482.829 16.477v4.947h-1.1v-4.947H479.3V15.5h5.924v.977z" class="cls-2" transform="translate(1490.173 82.691)"/>
            <path id="Path_3770" d="M501.1 21.456V15.5h5.389v.977h-4.317v1.45h3.34v.973h-3.34v1.544h4.506v.977H501.1z" class="cls-2" transform="translate(1475.243 82.691)"/>
            <path id="Path_3771" d="M533 20.158a4.438 4.438 0 0 0 1.7-.347v-1.733h1.071v2.3a5.281 5.281 0 0 1-2.8.819 3.166 3.166 0 1 1 0-6.3 4.414 4.414 0 0 1 2.773.882l-.6.882a3.358 3.358 0 0 0-2.144-.694 2.122 2.122 0 0 0-2.363 2.08A2.162 2.162 0 0 0 533 20.158z" class="cls-2" transform="translate(1455.793 83.106)"/>
            <path id="Path_3972" d="M533 20.158a4.438 4.438 0 0 0 1.7-.347v-1.733h1.071v2.3a5.281 5.281 0 0 1-2.8.819 3.166 3.166 0 1 1 0-6.3 4.414 4.414 0 0 1 2.773.882l-.6.882a3.358 3.358 0 0 0-2.144-.694 2.122 2.122 0 0 0-2.363 2.08A2.162 2.162 0 0 0 533 20.158z" class="cls-2" transform="translate(1408.524 91.477)"/>
            <path id="Path_3772" d="M554.3 21.456V15.5h5.42v.977h-4.32v1.45h3.34v.973h-3.34v1.544h4.475v.977H554.3z" class="cls-2" transform="translate(1438.808 82.691)"/>
            <path id="Path_3773" d="M576.971 21.456H575.9V15.5h1.134l3.876 4.475h.031c-.063-1.134-.063-2.048-.063-2.9V15.5h1.071v5.924h-1.1L577 16.95c.032.882.032 2.426.032 2.9z" class="cls-2" transform="translate(1424.015 82.691)"/>
            <path id="Path_3973" d="M576.971 21.456H575.9V15.5h1.134l3.876 4.475h.031c-.063-1.134-.063-2.048-.063-2.9V15.5h1.071v5.924h-1.1L577 16.95c.032.882.032 2.426.032 2.9z" class="cls-2" transform="translate(1384.132 91.062)"/>
            <path id="Path_3774" d="M600.2 21.456V15.5h5.42v.977h-4.32v1.45h3.34v.973h-3.34v1.544h4.506v.977H600.2z" class="cls-2" transform="translate(1407.372 82.691)"/>
            <path id="Path_3775" d="M624.668 19.25H622.9v2.174h-1.1V15.5h3.813a1.865 1.865 0 0 1 2.048 1.891 1.806 1.806 0 0 1-1.7 1.828l1.765 2.206h-1.387zm.819-.977c.693 0 1.071-.347 1.071-.882a.85.85 0 0 0-.788-.914h-2.87v1.765h2.584z" class="cls-2" transform="translate(1392.579 82.691)"/>
            <path id="Path_3776" d="M643.859 20.075l-.693 1.45H642l2.9-5.924h1.166l2.9 5.924h-1.2l-.693-1.45zm.441-.977h2.269l-1.134-2.398z" class="cls-2" transform="translate(1378.744 82.623)"/>
            <path id="Path_3777" d="M666.6 21.456V15.5h1.1v4.947h3.971v.977z" class="cls-2" transform="translate(1361.896 82.691)"/>
            <path id="Path_3778" d="M685.1 21.456V15.5h5.42v.977h-4.32v1.45h3.34v.973h-3.34v1.544h4.506v.977H685.1z" class="cls-2" transform="translate(1349.226 82.691)"/>
            <path id="Path_3802" d="M643.859 20.075l-.693 1.45H642l2.9-5.924h1.166l2.9 5.924h-1.2l-.693-1.45zm.441-.977h2.269l-1.134-2.398z" class="cls-2" transform="translate(1310.291 90.771)"/>
            <path id="Path_3974" d="M643.859 20.075l-.693 1.45H642l2.9-5.924h1.166l2.9 5.924h-1.2l-.693-1.45zm.441-.977h2.269l-1.134-2.398z" class="cls-2" transform="translate(1325.063 90.771)"/>
            <g id="Group_8535" transform="translate(1945.398 106.37)">
                <path id="Path_3799" d="M451.2 21.456V15.5h1.1v5.924h-1.1z" class="cls-2" transform="translate(-451.2 -15.5)"/>
                <path id="Path_3800" d="M451.2 21.456V15.5h1.1v5.924h-1.1z" class="cls-2" transform="translate(-446.276 -15.5)"/>
                <path id="Path_3801" d="M0 5.956V0h1.1v5.924H0z" class="cls-2" transform="rotate(90 1.782 4.209)"/>
            </g>
        </g>
    </g>
</svg>
